<?xml version="1.0" encoding="UTF-8"?><svg id="a" xmlns="http://www.w3.org/2000/svg" viewBox="0 0 500 500"><defs><style>.b{fill:#00fdfe;}.c{fill:#000046;}</style></defs><path class="c" d="m322,500H0C0,333.33,0,166.67,0,0c166.67,0,333.33,0,500,0,0,166.67,0,333.33,0,500-59.17,0-118.33,0-178,0"/><path class="b" d="m109.49,135.43c1.3-11.54,2.41-22.64,3.94-33.68.27-1.96,1.84-4.48,3.53-5.37,6.14-3.24,12.39-6.56,18.98-8.61,8.56-2.66,14.42.37,17.41,8.83,2.02,5.72,3.72,11.96,3.65,17.94-.22,17.29-1.41,34.56-2.23,51.84-.09,1.79-.29,3.58-.53,6.34,3.07-2.19,5.46-3.89,7.86-5.6,29.97-21.41,60.7-41.59,94.65-56.27,19.49-8.43,39.48-15.04,61.13-14.74,21.87.31,38.69,9.78,50.7,27.85,11.5,17.3,16.66,36.89,19.57,57.11,6.35,44.17,6.28,88.65,6.2,133.15-.06,29.65.39,59.3.69,88.95.07,6.48-4.67,10.88-11.15,9.87-7.22-1.12-14.4-2.59-21.65-3.42-3.05-.35-3.5-2.16-3.76-4.25-2.11-16.81-5.47-33.6-5.9-50.46-.96-37.96-.09-75.96-.65-113.93-.41-27.97-1.7-55.93-7.5-83.46-.14-.65-.24-1.32-.25-1.98-.1-8.19-.37-8.74-8.56-9.71-14.13-1.69-27.92.94-41.48,4.37-37.24,9.43-73.29,22.08-105.8,43.01-8.97,5.78-16.85,13.46-24.51,21-5.06,4.98-6.9,11.66-6.87,19.16.22,54.32.12,108.64.12,162.96v6.66c-5.28,0-10.21,0-15.14,0-8,0-16-.18-23.99.08-3.46.12-5.25-.85-5.73-4.36-1.54-11.2-4.01-22.33-4.66-33.57-3.92-67.93-2.89-135.89,0-203.83.36-8.48,1.27-16.94,1.96-25.86Z"/></svg>