<?xml version="1.0" encoding="UTF-8"?>
<svg id="a" data-name="Layer 1" xmlns="http://www.w3.org/2000/svg" viewBox="0 0 1000 1000">
  <defs>
    <style>
      .b {
        fill: #ff8353;
      }

      .c {
        fill: #166678;
        stroke: #ff0;
        stroke-miterlimit: 10;
        stroke-width: 8px;
      }

      .d {
        fill: #00508c;
      }
    </style>
  </defs>
  <rect class="d" x="-22.38" y="-22.38" width="1038.18" height="1038.18"/>
  <path class="b" d="m174.13,994.11c-8.86-25.91,17.64-56.73,35.95-73.8.11-.1.23-.19.37-.26,38.05-19.41,74.95-37.97,96.69-76.94.04-.07.08-.13.13-.2,109.94-141.31,67.8-109.02,98.24-268.99,13.55-57.7,31.26-116.15,65.39-165.28.09-.12.19-.24.31-.33,19.05-15.36,21.47-36.19,10.96-57.65-.06-.12-.13-.23-.21-.33-10.49-13.53-36.17-2.4-51.8-9.98-.14-.07-.29-.12-.45-.14-19.11-2.95-16.08-33.72-16.08-33.72l1.18-12.2s2.38-19.25-1.02-28.61c-.16-.43-7.17-.91-7.42-1.29-10.54-15.72,27.41-37.19,12.24-59.13-.12-.17-.21-.37-.25-.57-2.93-12.71-.04-24.01,5.91-34.17,1.03-1.76-1.57-3.41-2.71-1.72-6.24,9.28-8.07,23.42-9.96,34.99-.27,1.68-2.64,1.83-3.12.21-19.79-66.37,63.99-115.59,123.52-105.17,41.58,4.61,82.92,26.06,106.79,60.5,48.32,68.42-59.98,139.56-14.09,209.01.02.03.03.05.05.08,32.96,59.73,100.16,89.35,134.2,148.42.01.03.03.05.05.08,33.3,49.12,45.42,108.59,67.09,163.38,2.24,5.94,2.63,6.96-2.65,10.26-.14.08-.29.15-.45.2-29.36,8.39-12.49,32.45-11.21,55.06,0,.08,0,.15,0,.23-3.94,60.37-19.06,120.2-27.74,180.16-4.11,23.87-8.1,48.51-11.87,72.46-.12.78-.79,1.35-1.59,1.35-135.23,0-270.54.46-406.23,0-.9,0-1.62-.74-1.61-1.63.47-43.99,7.2-86.97,10.33-130.79.11-1.5-1.71-2.3-2.76-1.23-27.4,27.97-56.73,52.62-78.41,85.49-.05.07-.1.14-.16.21-8.79,9.63-20.27,15.41-32.18,20.04-13.24,5.15-21.6,15.16-28.94,26.46-.27.42-.73.7-1.23.75-11.05,1.08-14.21-.5-13-4.69.46-1.6-1.43-2.79-2.63-1.63-6.5,6.27-12.54,8.51-27.93,6.02-.72-.12-1.28-.72-1.35-1.44-.82-7.87-4.25-5.06-10.33-3.46m520.75-113.5c1.44-34.15,5.93-69.38,1.69-103.32-.2-1.58-2.34-1.95-3.05-.52-30.9,62.13-14.01,130.21-5.13,196.39.26,1.93,3.08,1.83,3.2-.11,1.92-30.93,2.3-60.79,3.3-92.43Z"/>
  <path class="c" d="m467.83,521.81c5.25-9.09,16.87-12.2,25.96-6.95s12.2,16.87,6.96,25.96c-2.57,4.44-6.65,7.45-11.22,8.75-2.19,29.65,14.54,50.08,35.35,52.33,18.54,2,34.77-13.52,44.97-26.93-4.19-6.64-4.66-15.32-.45-22.6,6.04-10.46,19.4-14.04,29.86-8,10.46,6.04,14.04,19.4,8,29.86-4.2,7.28-11.95,11.21-19.8,10.9-6.51,15.53-11.83,37.36-.84,52.41,12.35,16.9,38.41,21.16,62.99,4.45-1.15-4.61-.6-9.65,1.97-14.1,5.25-9.09,16.87-12.2,25.96-6.95,9.09,5.25,12.21,16.87,6.96,25.96-4.83,8.36-15.04,11.65-23.72,8.04l-74.28,74.19-140.86-81.33,27.11-101.43c-7.46-5.72-9.73-16.2-4.9-24.57Z"/>
</svg>