<?xml version="1.0" encoding="UTF-8"?><svg id="a" xmlns="http://www.w3.org/2000/svg" xmlns:xlink="http://www.w3.org/1999/xlink" viewBox="0 0 3000 3000"><defs><clipPath id="b"><rect width="3000" height="3000" fill="none"/></clipPath></defs><g clip-path="url(#b)"><rect width="3000" height="3000" fill="#003462"/><path d="m1125.77,412.97h701.71c201.86,0,322.98,0,403.73,33.71,116.4,42.37,208.09,134.06,250.46,250.46,33.71,80.74,33.71,201.86,33.71,403.73v750.41c0,201.86,0,322.98-33.71,403.73-42.37,116.4-134.06,208.1-250.46,250.46-80.75,33.71-201.86,33.71-403.73,33.71h-701.71c-201.86,0-322.98,0-403.73-33.71-116.4-42.37-208.1-134.06-250.46-250.46-33.71-80.75-33.71-201.86-33.71-403.73v-750.41c0-201.86,0-322.98,33.71-403.73,42.37-116.4,134.06-208.09,250.46-250.46,80.75-33.71,201.86-33.71,403.73-33.71Z" fill="#017100"/><line x1="708.23" y1="2763.29" x2="708.23" y2="2354.71" fill="none" stroke="#a7a7a7" stroke-width="100"/><line x1="1104.12" y1="2763.29" x2="1104.12" y2="2354.71" fill="none" stroke="#a7a7a7" stroke-width="100"/><line x1="1500" y1="2763.29" x2="1500" y2="2354.71" fill="none" stroke="#a7a7a7" stroke-width="100"/><line x1="2291.77" y1="2763.29" x2="2291.77" y2="2354.71" fill="none" stroke="#a7a7a7" stroke-width="100"/><line x1="1895.88" y1="2763.29" x2="1895.88" y2="2354.71" fill="none" stroke="#a7a7a7" stroke-width="100"/><line x1="1104.12" y1="645.29" x2="1104.12" y2="236.71" fill="none" stroke="#a7a7a7" stroke-width="100"/><line x1="1500" y1="645.29" x2="1500" y2="236.71" fill="none" stroke="#a7a7a7" stroke-width="100"/><line x1="1905.89" y1="645.29" x2="1905.89" y2="236.71" fill="none" stroke="#a7a7a7" stroke-width="100"/><line x1="2311.78" y1="645.29" x2="2311.78" y2="236.71" fill="none" stroke="#a7a7a7" stroke-width="100"/><line x1="708.23" y1="645.29" x2="708.23" y2="236.71" fill="none" stroke="#a7a7a7" stroke-width="100"/><line x1="621.76" y1="1500" x2="213.18" y2="1500" fill="none" stroke="#a7a7a7" stroke-width="100"/><line x1="621.76" y1="2077.84" x2="213.18" y2="2077.84" fill="none" stroke="#a7a7a7" stroke-width="100"/><line x1="621.76" y1="1788.92" x2="213.18" y2="1788.92" fill="none" stroke="#a7a7a7" stroke-width="100"/><line x1="621.76" y1="1211.08" x2="213.18" y2="1211.08" fill="none" stroke="#a7a7a7" stroke-width="100"/><line x1="621.76" y1="922.16" x2="213.18" y2="922.16" fill="none" stroke="#a7a7a7" stroke-width="100"/><line x1="2749.21" y1="922.16" x2="2340.62" y2="922.16" fill="none" stroke="#a7a7a7" stroke-width="100"/><line x1="2749.21" y1="1211.08" x2="2340.62" y2="1211.08" fill="none" stroke="#a7a7a7" stroke-width="100"/><line x1="2749.21" y1="1500" x2="2340.62" y2="1500" fill="none" stroke="#a7a7a7" stroke-width="100"/><line x1="2749.21" y1="1788.92" x2="2340.62" y2="1788.92" fill="none" stroke="#a7a7a7" stroke-width="100"/><line x1="2749.21" y1="2077.84" x2="2340.62" y2="2077.84" fill="none" stroke="#a7a7a7" stroke-width="100"/><circle cx="1500" cy="976.9" r="184.98" fill="#fff"/><rect x="1371.31" y="1308.52" width="257.37" height="840.75" fill="#fff"/><line x1="1450" y1="1550" x2="1550" y2="1450" fill="none" stroke="#fff" stroke-width="5"/><line x1="1210.12" y1="2195.54" x2="1789.88" y2="2195.54" fill="none" stroke="#fff" stroke-width="100"/></g></svg>